<mxfile host="app.diagrams.net" modified="2021-05-10T07:07:46.933Z" agent="5.0 (Macintosh; Intel Mac OS X 10_14_6) AppleWebKit/537.36 (KHTML, like Gecko) Chrome/90.0.4430.93 Safari/537.36" etag="nHdthnD5OFyJVKWZM71T" version="14.6.11" type="github" pages="3">
  <diagram id="u2uXBXgQpVOhXw65fqWF" name="新报表开发需求申请流程">
    <mxGraphModel dx="1426" dy="803" grid="1" gridSize="10" guides="1" tooltips="1" connect="1" arrows="1" fold="1" page="1" pageScale="1" pageWidth="1169" pageHeight="1654" math="0" shadow="0">
      <root>
        <mxCell id="0" />
        <mxCell id="1" parent="0" />
        <mxCell id="GYr_WQ7Ui339g3S2H9Wk-1" value="" style="rounded=0;whiteSpace=wrap;html=1;" vertex="1" parent="1">
          <mxGeometry x="110" y="160" width="1010" height="320" as="geometry" />
        </mxCell>
        <mxCell id="t-ILEGw8UZY0o8nZiPXd-1" value="" style="rounded=0;whiteSpace=wrap;html=1;" vertex="1" parent="1">
          <mxGeometry x="110" y="480" width="1010" height="320" as="geometry" />
        </mxCell>
        <mxCell id="t-ILEGw8UZY0o8nZiPXd-5" value="D1" style="rounded=0;whiteSpace=wrap;html=1;" vertex="1" parent="1">
          <mxGeometry x="80" y="160" width="30" height="320" as="geometry" />
        </mxCell>
        <mxCell id="t-ILEGw8UZY0o8nZiPXd-6" value="D2" style="rounded=0;whiteSpace=wrap;html=1;" vertex="1" parent="1">
          <mxGeometry x="80" y="480" width="30" height="320" as="geometry" />
        </mxCell>
        <mxCell id="t-ILEGw8UZY0o8nZiPXd-7" value="" style="group" vertex="1" connectable="0" parent="1">
          <mxGeometry x="80" y="65" width="1040" height="70" as="geometry" />
        </mxCell>
        <mxCell id="VUaYPlYSGEVX0YOZS-35-1" value="" style="rounded=0;whiteSpace=wrap;html=1;" parent="t-ILEGw8UZY0o8nZiPXd-7" vertex="1">
          <mxGeometry width="1040" height="70" as="geometry" />
        </mxCell>
        <mxCell id="t-ILEGw8UZY0o8nZiPXd-2" value="&lt;p class=&quot;MsoNormal&quot; style=&quot;margin-bottom: 8pt ; line-height: 15.6933px ; font-family: &amp;#34;calibri&amp;#34; ; font-size: 11pt&quot;&gt;&lt;span style=&quot;font-size: 12pt&quot;&gt;仲谋新报表开发申请&lt;/span&gt;&lt;span style=&quot;font-size: 12pt&quot;&gt;&lt;font face=&quot;宋体&quot;&gt;流程&lt;/font&gt;&lt;/span&gt;&lt;/p&gt;" style="text;html=1;strokeColor=none;fillColor=none;align=left;verticalAlign=middle;whiteSpace=wrap;rounded=0;" vertex="1" parent="t-ILEGw8UZY0o8nZiPXd-7">
          <mxGeometry x="20" y="10" width="190" height="20" as="geometry" />
        </mxCell>
        <mxCell id="t-ILEGw8UZY0o8nZiPXd-3" value="&lt;p class=&quot;MsoNormal&quot; style=&quot;margin-bottom: 8pt ; line-height: 15.6933px ; font-family: &amp;#34;calibri&amp;#34;&quot;&gt;&lt;span style=&quot;font-size: 16px&quot;&gt;适用范围：仲谋新报表申请&lt;/span&gt;&lt;/p&gt;" style="text;html=1;strokeColor=none;fillColor=none;align=left;verticalAlign=middle;whiteSpace=wrap;rounded=0;" vertex="1" parent="t-ILEGw8UZY0o8nZiPXd-7">
          <mxGeometry x="20" y="40" width="220" height="20" as="geometry" />
        </mxCell>
        <mxCell id="t-ILEGw8UZY0o8nZiPXd-4" value="&lt;p class=&quot;MsoNormal&quot; style=&quot;margin-bottom: 8pt ; line-height: 15.6933px ; font-family: &amp;#34;calibri&amp;#34;&quot;&gt;&lt;span style=&quot;font-size: 16px&quot;&gt;流程编号：JT-XXJSB0001&lt;/span&gt;&lt;/p&gt;" style="text;html=1;strokeColor=none;fillColor=none;align=left;verticalAlign=middle;whiteSpace=wrap;rounded=0;" vertex="1" parent="t-ILEGw8UZY0o8nZiPXd-7">
          <mxGeometry x="630" y="10" width="210" height="20" as="geometry" />
        </mxCell>
        <mxCell id="t-ILEGw8UZY0o8nZiPXd-8" value="" style="rounded=0;whiteSpace=wrap;html=1;" vertex="1" parent="1">
          <mxGeometry x="80" y="135" width="1040" height="25" as="geometry" />
        </mxCell>
      </root>
    </mxGraphModel>
  </diagram>
  <diagram id="3BYtkL_G5EET26jgun21" name="现有报表修改申请流程">
    <mxGraphModel dx="1426" dy="803" grid="1" gridSize="10" guides="1" tooltips="1" connect="1" arrows="1" fold="1" page="1" pageScale="1" pageWidth="1169" pageHeight="1654" math="0" shadow="0">
      <root>
        <mxCell id="NCF4tcWcs3JPyOawOPhI-0" />
        <mxCell id="NCF4tcWcs3JPyOawOPhI-1" parent="NCF4tcWcs3JPyOawOPhI-0" />
      </root>
    </mxGraphModel>
  </diagram>
  <diagram id="7l5fXJxzgoj-WyXv7Beu" name="临时数据需求申请流程">
    <mxGraphModel dx="1426" dy="803" grid="1" gridSize="10" guides="1" tooltips="1" connect="1" arrows="1" fold="1" page="1" pageScale="1" pageWidth="1169" pageHeight="1654" math="0" shadow="0">
      <root>
        <mxCell id="SBYf-GrupjFr-2gO59wo-0" />
        <mxCell id="SBYf-GrupjFr-2gO59wo-1" parent="SBYf-GrupjFr-2gO59wo-0" />
      </root>
    </mxGraphModel>
  </diagram>
</mxfile>
